<svg width="600" height="360" viewBox="0 0 600 360" fill="none" xmlns="http://www.w3.org/2000/svg">
<rect width="600" height="360" fill="#F7FAFC"/>
<circle opacity="0.25" cx="300" cy="180" r="120" fill="#56919C"/>
<path d="M248.787 142.12C246.001 144.906 243.791 148.213 242.283 151.853C240.776 155.492 240 159.394 240 163.333C240 167.273 240.776 171.174 242.283 174.814C243.791 178.454 246.001 181.761 248.787 184.547L300 235.76L351.213 184.547C356.839 178.92 360 171.29 360 163.333C360 155.377 356.839 147.746 351.213 142.12C345.587 136.494 337.957 133.333 330 133.333C322.043 133.333 314.413 136.494 308.787 142.12L300 150.907L291.213 142.12C288.428 139.334 285.12 137.124 281.481 135.617C277.841 134.109 273.94 133.333 270 133.333C266.06 133.333 262.159 134.109 258.519 135.617C254.88 137.124 251.572 139.334 248.787 142.12V142.12Z" fill="#56919C" stroke="#56919C" stroke-width="10" stroke-linecap="round" stroke-linejoin="round"/>
<path d="M328.42 241.453L313.627 196.76L355.675 217.933L346.59 225.773L356.39 237.129L347.305 244.969L337.505 233.613L328.42 241.453Z" fill="white" stroke="#56919C" stroke-width="3" stroke-linejoin="round"/>
<line x1="410.666" y1="72.7947" x2="389.795" y2="79.7517" stroke="#56919C" stroke-width="6" stroke-linecap="round"/>
<line x1="371.647" y1="43.3941" x2="368.394" y2="66.1629" stroke="#56919C" stroke-width="6" stroke-linecap="round"/>
<line x1="394.135" y1="52.1849" x2="380.185" y2="71.7145" stroke="#56919C" stroke-width="6" stroke-linecap="round"/>
</svg>
