<svg width="600" height="360" viewBox="0 0 600 360" fill="none" xmlns="http://www.w3.org/2000/svg">
<g clip-path="url(#clip0_753_1446)">
<rect width="600" height="360" fill="#F7FAFC"/>
<rect x="76" y="31" width="448" height="359" rx="21" fill="white" stroke="#CFE0E4" stroke-width="6"/>
<rect x="107" y="54" width="277" height="24" rx="6" fill="url(#paint0_linear_753_1446)"/>
<rect x="107" y="308" width="277" height="24" rx="6" fill="url(#paint1_linear_753_1446)"/>
<rect x="195" y="98" width="292" height="24" rx="6" fill="url(#paint2_linear_753_1446)"/>
<rect x="195" y="352" width="292" height="24" rx="6" fill="url(#paint3_linear_753_1446)"/>
<rect x="195" y="208" width="292" height="24" rx="6" fill="url(#paint4_linear_753_1446)"/>
<rect x="195" y="138" width="252" height="12" rx="4" fill="url(#paint5_linear_753_1446)"/>
<rect x="195" y="248" width="252" height="12" rx="4" fill="url(#paint6_linear_753_1446)"/>
<rect x="195" y="158" width="230" height="12" rx="4" fill="url(#paint7_linear_753_1446)"/>
<rect x="195" y="268" width="230" height="12" rx="4" fill="url(#paint8_linear_753_1446)"/>
<rect x="195" y="178" width="241" height="12" rx="4" fill="url(#paint9_linear_753_1446)"/>
<path d="M107 106C107 101.582 110.582 98 115 98H163C167.418 98 171 101.582 171 106V154C171 158.418 167.418 162 163 162H115C110.582 162 107 158.418 107 154V106Z" fill="#D5E3E6"/>
<path d="M107 360C107 355.582 110.582 352 115 352H163C167.418 352 171 355.582 171 360V408C171 412.418 167.418 416 163 416H115C110.582 416 107 412.418 107 408V360Z" fill="#D5E3E6"/>
<rect x="107" y="208" width="64" height="64" rx="8" fill="#D5E3E6"/>
</g>
<defs>
<linearGradient id="paint0_linear_753_1446" x1="107" y1="66" x2="384" y2="66" gradientUnits="userSpaceOnUse">
<stop stop-color="#D6E0EA"/>
<stop offset="1" stop-color="#D9E3EE" stop-opacity="0.76"/>
</linearGradient>
<linearGradient id="paint1_linear_753_1446" x1="107" y1="320" x2="384" y2="320" gradientUnits="userSpaceOnUse">
<stop stop-color="#D6E0EA"/>
<stop offset="1" stop-color="#D9E3EE" stop-opacity="0.76"/>
</linearGradient>
<linearGradient id="paint2_linear_753_1446" x1="195" y1="110" x2="487" y2="110" gradientUnits="userSpaceOnUse">
<stop stop-color="#D6E0EA"/>
<stop offset="1" stop-color="#D9E3EE" stop-opacity="0.76"/>
</linearGradient>
<linearGradient id="paint3_linear_753_1446" x1="195" y1="364" x2="487" y2="364" gradientUnits="userSpaceOnUse">
<stop stop-color="#D6E0EA"/>
<stop offset="1" stop-color="#D9E3EE" stop-opacity="0.76"/>
</linearGradient>
<linearGradient id="paint4_linear_753_1446" x1="195" y1="220" x2="487" y2="220" gradientUnits="userSpaceOnUse">
<stop stop-color="#D6E0EA"/>
<stop offset="1" stop-color="#D9E3EE" stop-opacity="0.76"/>
</linearGradient>
<linearGradient id="paint5_linear_753_1446" x1="195" y1="144" x2="447" y2="144" gradientUnits="userSpaceOnUse">
<stop stop-color="#D6E0EA"/>
<stop offset="1" stop-color="#D9E3EE" stop-opacity="0.76"/>
</linearGradient>
<linearGradient id="paint6_linear_753_1446" x1="195" y1="254" x2="447" y2="254" gradientUnits="userSpaceOnUse">
<stop stop-color="#D6E0EA"/>
<stop offset="1" stop-color="#D9E3EE" stop-opacity="0.76"/>
</linearGradient>
<linearGradient id="paint7_linear_753_1446" x1="195" y1="164" x2="425" y2="164" gradientUnits="userSpaceOnUse">
<stop stop-color="#D6E0EA"/>
<stop offset="1" stop-color="#D9E3EE" stop-opacity="0.76"/>
</linearGradient>
<linearGradient id="paint8_linear_753_1446" x1="195" y1="274" x2="425" y2="274" gradientUnits="userSpaceOnUse">
<stop stop-color="#D6E0EA"/>
<stop offset="1" stop-color="#D9E3EE" stop-opacity="0.76"/>
</linearGradient>
<linearGradient id="paint9_linear_753_1446" x1="195" y1="184" x2="436" y2="184" gradientUnits="userSpaceOnUse">
<stop stop-color="#D6E0EA"/>
<stop offset="1" stop-color="#D9E3EE" stop-opacity="0.76"/>
</linearGradient>
<clipPath id="clip0_753_1446">
<rect width="600" height="360" fill="white"/>
</clipPath>
</defs>
</svg>
